<svg xmlns="http://www.w3.org/2000/svg" xmlns:xlink="http://www.w3.org/1999/xlink" version="1.1" style="enable-background:new 0 0 366.565 366.565;" xml:space="preserve" width="221" height="367"><rect id="backgroundrect" width="100%" height="100%" x="0" y="0" fill="none" stroke="none"/>
















<g class="currentLayer" style=""><title>Layer 1</title><g id="svg_1" class="">
	<path style="fill:#F79F4B;" d="M212.99700341796876,366.565 H8.000003417968756 c-4.418,0 -8,-3.582 -8,-8 V8 c0,-4.418 3.582,-8 8,-8 h204.997 c4.418,0 8,3.582 8,8 v350.565 C220.99700341796876,362.984 217.41500341796876,366.565 212.99700341796876,366.565 z" id="svg_2"/>
	<path style="fill:#CA8540;" d="M111.49900341796874,366.565 H8.000003417968756 c-4.418,0 -8,-3.582 -8,-8 V8 c0,-4.418 3.582,-8 8,-8 h103.498 V366.565 z" id="svg_3"/>
	<g id="svg_4">
		<g id="svg_5">
			<g id="svg_6">
				<path style="fill:#83CFE0;" d="M55.49900341796874,102.971 c-8.284,0 -15,-6.716 -15,-15 v-19 c0,-8.284 6.716,-15 15,-15 s15,6.716 15,15 v19 C70.49900341796874,96.255 63.78300341796876,102.971 55.49900341796874,102.971 z" id="svg_7"/>
			</g>
			<g id="svg_8">
				<path style="fill:#C6E5E4;" d="M111.49900341796874,102.281 c-8.284,0 -15,-6.716 -15,-15 v-19 c0,-8.284 6.716,-15 15,-15 s15,6.716 15,15 v19 C126.49900341796874,95.565 119.78300341796876,102.281 111.49900341796874,102.281 z" id="svg_9"/>
			</g>
			<g id="svg_10">
				<g id="svg_11">
					<g id="svg_12">
						<path style="fill:#83CFE0;" d="M111.22000341796874,102.278 c-8.156,-0.14900000000000002 -14.721,-6.806 -14.721,-14.997 v-19 c0,-8.236 6.6370000000000005,-14.921 14.855,-14.999 L111.22000341796874,102.278 z" id="svg_13"/>
					</g>
				</g>
			</g>
			<g id="svg_14">
				<path style="fill:#C6E5E4;" d="M167.49900341796874,102.281 c-8.284,0 -15,-6.716 -15,-15 v-19 c0,-8.284 6.716,-15 15,-15 s15,6.716 15,15 v19 C182.49900341796874,95.565 175.78300341796876,102.281 167.49900341796874,102.281 z" id="svg_15"/>
			</g>
		</g>
	</g>
	<g id="svg_16">
		<g id="svg_17">
			<g id="svg_18">
				<path style="fill:#83CFE0;" d="M55.49900341796874,179.637 c-8.284,0 -15,-6.716 -15,-15 v-19 c0,-8.284 6.716,-15 15,-15 s15,6.716 15,15 v19 C70.49900341796874,172.922 63.78300341796876,179.637 55.49900341796874,179.637 z" id="svg_19"/>
			</g>
			<g id="svg_20">
				<path style="fill:#C6E5E4;" d="M111.49900341796874,178.947 c-8.284,0 -15,-6.716 -15,-15 v-19 c0,-8.284 6.716,-15 15,-15 s15,6.716 15,15 v19 C126.49900341796874,172.232 119.78300341796876,178.947 111.49900341796874,178.947 z" id="svg_21"/>
			</g>
			<g id="svg_22">
				<g id="svg_23">
					<g id="svg_24">
						<path style="fill:#83CFE0;" d="M111.22000341796874,178.945 c-8.156,-0.14900000000000002 -14.721,-6.806 -14.721,-14.997 v-19 c0,-8.236 6.6370000000000005,-14.921 14.855,-14.999 L111.22000341796874,178.945 z" id="svg_25"/>
					</g>
				</g>
			</g>
			<g id="svg_26">
				<path style="fill:#C6E5E4;" d="M167.49900341796874,178.947 c-8.284,0 -15,-6.716 -15,-15 v-19 c0,-8.284 6.716,-15 15,-15 s15,6.716 15,15 v19 C182.49900341796874,172.232 175.78300341796876,178.947 167.49900341796874,178.947 z" id="svg_27"/>
			</g>
		</g>
	</g>
	<g id="svg_28">
		<g id="svg_29">
			<g id="svg_30">
				<path style="fill:#83CFE0;" d="M55.49900341796874,256.304 c-8.284,0 -15,-6.716 -15,-15 v-19 c0,-8.284 6.716,-15 15,-15 s15,6.716 15,15 v19 C70.49900341796874,249.588 63.78300341796876,256.304 55.49900341796874,256.304 z" id="svg_31"/>
			</g>
			<g id="svg_32">
				<path style="fill:#C6E5E4;" d="M111.49900341796874,255.614 c-8.284,0 -15,-6.716 -15,-15 v-19 c0,-8.284 6.716,-15 15,-15 s15,6.716 15,15 v19 C126.49900341796874,248.898 119.78300341796876,255.614 111.49900341796874,255.614 z" id="svg_33"/>
			</g>
			<g id="svg_34">
				<g id="svg_35">
					<g id="svg_36">
						<path style="fill:#83CFE0;" d="M111.22000341796874,255.612 c-8.156,-0.14800000000000002 -14.721,-6.806 -14.721,-14.997 v-19 c0,-8.236 6.6370000000000005,-14.921 14.855,-14.999 L111.22000341796874,255.612 z" id="svg_37"/>
					</g>
				</g>
			</g>
			<g id="svg_38">
				<path style="fill:#C6E5E4;" d="M167.49900341796874,255.614 c-8.284,0 -15,-6.716 -15,-15 v-19 c0,-8.284 6.716,-15 15,-15 s15,6.716 15,15 v19 C182.49900341796874,248.898 175.78300341796876,255.614 167.49900341796874,255.614 z" id="svg_39"/>
			</g>
		</g>
	</g>
	<path style="fill:#387F9E;" d="M86.14600341796876,366.565 V329.08 c0,-13.922 11.286,-25.207 25.207,-25.207 h0 c13.922,0 25.207,11.286 25.207,25.207 v37.486 H86.14600341796876 z" id="svg_40"/>
	<path style="fill:#29556E;" d="M86.14600341796876,366.565 V329.08 c0,-13.922 11.286,-25.207 25.207,-25.207 h0 l0.14500000000000002,62.693 H86.14600341796876 z" id="svg_41"/>
</g></g></svg>